<svg width="20" height="20" viewBox="0 0 20 20" fill="none" xmlns="http://www.w3.org/2000/svg">
<path d="M7.79642 17.5003C8.38403 18.019 9.15591 18.3337 10.0013 18.3337C10.8466 18.3337 11.6185 18.019 12.2061 17.5003M15.0013 6.66699C15.0013 5.34091 14.4745 4.06914 13.5368 3.13146C12.5991 2.19378 11.3274 1.66699 10.0013 1.66699C8.6752 1.66699 7.40343 2.19378 6.46574 3.13146C5.52806 4.06914 5.00128 5.34091 5.00128 6.66699C5.00128 9.24215 4.35167 11.0053 3.626 12.1715C3.01388 13.1552 2.70783 13.6471 2.71905 13.7843C2.73147 13.9362 2.76366 13.9942 2.88609 14.085C2.99666 14.167 3.4951 14.167 4.49199 14.167H15.5106C16.5075 14.167 17.0059 14.167 17.1165 14.085C17.2389 13.9942 17.2711 13.9362 17.2835 13.7843C17.2947 13.6471 16.9887 13.1552 16.3766 12.1715C15.6509 11.0053 15.0013 9.24215 15.0013 6.66699Z" stroke="#667085" stroke-width="1.66667" stroke-linecap="round" stroke-linejoin="round"/>
</svg>
