<svg width="20" height="20" viewBox="0 0 20 20" fill="none" xmlns="http://www.w3.org/2000/svg">
<g id="icon / outlined / action / main / delete 3" clip-path="url(#clip0_2450_3124)">
<path id="Icon" d="M5.0786 9.35668C5.0268 9.02287 4.99993 8.6809 4.99993 8.33268C4.99993 4.65078 8.00433 1.66602 11.7105 1.66602C15.4166 1.66602 18.421 4.65078 18.421 8.33268C18.421 9.16441 18.2677 9.96056 17.9876 10.6948C17.9294 10.8473 17.9003 10.9235 17.8871 10.983C17.874 11.042 17.869 11.0835 17.8676 11.1439C17.8661 11.2048 17.8744 11.272 17.8909 11.4063L18.2264 14.1315C18.2627 14.4265 18.2809 14.574 18.2318 14.6812C18.1888 14.7752 18.1125 14.8498 18.0175 14.8906C17.9092 14.9372 17.7621 14.9156 17.4681 14.8725L14.8137 14.4834C14.6751 14.4631 14.6058 14.453 14.5427 14.4533C14.4802 14.4537 14.437 14.4583 14.3759 14.4711C14.3142 14.4841 14.2353 14.5137 14.0774 14.5728C13.3414 14.8485 12.5436 14.9993 11.7105 14.9993C11.362 14.9993 11.0197 14.973 10.6855 14.9221M6.35961 18.3327C8.83036 18.3327 10.8333 16.2807 10.8333 13.7493C10.8333 11.218 8.83036 9.16602 6.35961 9.16602C3.88886 9.16602 1.88592 11.218 1.88592 13.7493C1.88592 14.2582 1.96686 14.7476 2.11625 15.205C2.1794 15.3983 2.21098 15.4949 2.22134 15.561C2.23216 15.6299 2.23406 15.6686 2.23003 15.7383C2.22617 15.805 2.20947 15.8804 2.17608 16.0313L1.66663 18.3327L4.16229 17.9918C4.29851 17.9732 4.36662 17.9639 4.4261 17.9643C4.48873 17.9648 4.52196 17.9682 4.58338 17.9804C4.64171 17.992 4.72843 18.0226 4.90185 18.0838C5.35879 18.2451 5.84922 18.3327 6.35961 18.3327Z" stroke="#344054" stroke-width="1.6" stroke-linecap="round" stroke-linejoin="round"/>
</g>
<defs>
<clipPath id="clip0_2450_3124">
<rect width="20" height="20" fill="white"/>
</clipPath>
</defs>
</svg>
