<svg width="16" height="16" viewBox="0 0 16 16" fill="none" xmlns="http://www.w3.org/2000/svg">
<g id="check-verified-02" clip-path="url(#clip0_2117_65619)">
<path id="Icon" d="M6.00004 7.99967L7.33337 9.33301L10.3334 6.33301M11.9342 3.33201C12.0714 3.66403 12.3349 3.92794 12.6667 4.06572L13.8302 4.54766C14.1622 4.6852 14.426 4.949 14.5636 5.28105C14.7011 5.61309 14.7011 5.98617 14.5636 6.31821L14.082 7.48088C13.9444 7.81307 13.9442 8.18652 14.0824 8.51855L14.5632 9.68087C14.6313 9.84533 14.6664 10.0216 14.6665 10.1996C14.6665 10.3777 14.6315 10.554 14.5633 10.7184C14.4952 10.8829 14.3953 11.0324 14.2694 11.1582C14.1435 11.2841 13.9941 11.3839 13.8296 11.452L12.6669 11.9336C12.3349 12.0709 12.071 12.3344 11.9333 12.6662L11.4513 13.8297C11.3138 14.1617 11.05 14.4255 10.718 14.5631C10.3859 14.7006 10.0129 14.7006 9.68085 14.5631L8.51823 14.0815C8.18619 13.9443 7.81326 13.9446 7.48142 14.0823L6.31797 14.5635C5.98612 14.7007 5.61338 14.7006 5.28162 14.5632C4.94986 14.4258 4.68621 14.1623 4.54858 13.8306L4.06652 12.6667C3.92924 12.3347 3.66574 12.0708 3.33394 11.933L2.17048 11.4511C1.8386 11.3136 1.57488 11.05 1.4373 10.7181C1.29971 10.3863 1.29953 10.0134 1.43678 9.68137L1.91835 8.51871C2.05554 8.18666 2.05526 7.81371 1.91757 7.48186L1.43669 6.31753C1.36851 6.15307 1.3334 5.97679 1.33337 5.79876C1.33335 5.62073 1.3684 5.44444 1.43652 5.27996C1.50465 5.11548 1.60452 4.96604 1.73042 4.84018C1.85632 4.71431 2.00579 4.61449 2.17028 4.54641L3.33291 4.06482C3.66462 3.92766 3.92836 3.66447 4.06624 3.33305L4.54816 2.16955C4.68569 1.8375 4.94949 1.5737 5.28152 1.43616C5.61355 1.29862 5.98662 1.29862 6.31865 1.43616L7.48127 1.91775C7.81331 2.05495 8.18624 2.05467 8.51808 1.91697L9.68202 1.43691C10.014 1.29945 10.387 1.29948 10.719 1.43699C11.0509 1.5745 11.3147 1.83823 11.4522 2.17018L11.9343 3.33403L11.9342 3.33201Z" stroke="current" stroke-width="1.6" stroke-linecap="round" stroke-linejoin="round"/>
</g>
<defs>
<clipPath id="clip0_2117_65619">
<rect width="16" height="16" fill="white"/>
</clipPath>
</defs>
</svg>
