<svg id="CONCEPT_2" data-name="CONCEPT 2" xmlns="http://www.w3.org/2000/svg" viewBox="0 0 995.1 257.49" width="100%" height="100%">
  <defs>
    <style>
      .cls-1 {
        fill: #3364f7;
      }

      .cls-1, .cls-2 {
        stroke-width: 0px;
      }

      .cls-2 {
        fill: #fff;
      }
    </style>
  </defs>
  <path class="cls-1" d="m870.93,206H88.7c-17.74,0-28.26-17.22-23.51-38.47l17.93-80.16c4.75-21.24,22.99-38.47,40.72-38.47h782.23c17.74,0,28.26,17.22,23.51,38.47l-17.93,80.16c-4.75,21.24-22.99,38.47-40.72,38.47Z"/>
  <g>
    <path class="cls-2" d="m159.99,81.9l-4.6,92.04h-14.73l1.32-18.01h-16.3l-6.31,18.01h-13.94l34.58-92.04h19.99Zm-17.22,61.53l3.29-44.84-15.91,44.84h12.62Z"/>
    <path class="cls-2" d="m164.47,157.24c0-2.37.26-4.73.79-7.36l10.39-48.65c3.02-13.94,10.65-20.64,22.75-20.64,14.07,0,20.91,6.57,20.91,18.01,0,2.1-.26,4.6-.79,7.1l-1.18,5.92h-13.94l1.71-8.28c.26-1.18.39-2.37.39-3.29,0-4.6-2.63-6.44-6.97-6.44-4.08,0-6.84,2.23-8.15,8.15l-10.91,50.75c-.26,1.18-.39,2.37-.39,3.29,0,4.47,2.89,6.31,6.97,6.31s6.97-2.1,8.28-8.02l4.08-18.93h-7.36l2.76-13.15h21.3l-6.97,32.48c-2.89,13.67-10.52,20.77-22.48,20.77s-21.17-5.65-21.17-18.01Z"/>
    <path class="cls-2" d="m232.84,81.9h39.45l-2.89,13.15h-24.59l-5.13,24.32h19.46l-2.76,13.15h-19.46l-6.05,28.27h24.59l-2.76,13.15h-39.45l19.59-92.04Z"/>
    <path class="cls-2" d="m280.04,81.9h17.49l2.89,55.09,11.83-55.09h13.15l-19.59,92.04h-14.2l-3.68-67.19-14.33,67.19h-13.15l19.59-92.04Z"/>
    <path class="cls-2" d="m319.36,157.37c0-2.1.26-4.34.79-6.84l10.65-49.7c2.76-12.89,10.65-20.25,22.62-20.25,13.67,0,20.51,6.71,20.51,17.75,0,2.1-.26,4.6-.79,6.97l-1.58,7.63h-13.94l2.1-9.99c.26-1.05.39-2.1.39-3.02,0-4.21-2.76-6.18-6.97-6.18-3.81,0-6.57,2.37-7.76,7.76l-11.04,51.41c-.26,1.05-.39,2.1-.39,2.89,0,4.47,2.89,6.31,6.97,6.31,3.81,0,6.97-2.24,8.02-7.49l2.89-14.33h13.81l-3.02,14.73c-2.76,13.28-10.52,20.25-22.48,20.25-13.81,0-20.77-6.71-20.77-17.88Z"/>
    <path class="cls-2" d="m387.07,134.76l-6.18-52.86h14.73l2.5,34.32,17.49-34.32h14.99l-28.8,52.86-8.42,39.18h-14.73l8.42-39.18Z"/>
    <path class="cls-2" d="m437.17,81.9h21.17c11.18,0,17.75,5.26,17.75,15.78,0,2.24-.26,4.47-.79,7.1l-.92,4.47c-2.23,10.78-6.05,16.7-13.67,18.67v.13c4.6,1.58,6.71,5.65,6.71,11.44,0,2.37-.26,4.87-.92,7.63l-3.42,16.17c-.66,3.29-1.31,6.05-1.31,8.28,0,.79.13,1.58.26,2.37h-14.33c-.13-1.18-.26-2.24-.26-3.42,0-1.71.26-4.08,1.18-8.42l3.55-16.83c.53-2.24.79-4.08.79-5.52,0-4.08-2.1-5.26-6.97-5.26h-5.26l-8.42,39.45h-14.73l19.59-92.04Zm10.65,39.45c5.39,0,9.47-2.24,11.31-10.26l1.58-7.1c.39-1.71.53-3.02.53-4.21,0-3.42-1.71-4.73-5.52-4.73h-6.57l-5.65,26.3h4.34Z"/>
    <path class="cls-2" d="m490.42,81.9h39.45l-2.89,13.15h-24.59l-5.13,24.32h19.46l-2.76,13.15h-19.46l-6.05,28.27h24.59l-2.76,13.15h-39.45l19.59-92.04Z"/>
    <path class="cls-2" d="m534.34,81.9h14.46l-6.05,72.32,24.72-72.32h13.94l-33.27,92.04h-19.72l5.92-92.04Z"/>
    <path class="cls-2" d="m588.38,81.9h14.73l-19.59,92.04h-14.73l19.59-92.04Z"/>
    <path class="cls-2" d="m613.88,81.9h39.45l-2.89,13.15h-24.59l-5.13,24.32h19.46l-2.76,13.15h-19.46l-6.05,28.27h24.59l-2.76,13.15h-39.45l19.59-92.04Z"/>
    <path class="cls-2" d="m658.32,81.9h13.94l-8.94,72.05,22.22-72.05h15.78l-8.55,72.05,21.83-72.05h13.02l-28.79,92.04h-18.28l6.84-63.24-20.25,63.24h-19.2l10.39-92.04Z"/>
    <path class="cls-2" d="m716.71,158.16c0-2.5.26-5.13.92-8.15l.66-3.16h13.81l-1.05,5.65c-.26,1.31-.39,2.5-.39,3.55,0,4.73,2.63,6.05,6.84,6.05,6.97,0,8.94-6.44,8.94-12.88,0-5.65-2.37-10.91-8.02-17.49-7.36-8.28-10.91-16.44-10.91-24.72,0-15.12,8.94-26.43,24.06-26.43,13.02,0,19.72,5.92,19.72,16.96,0,2.5-.39,5.26-1.05,8.28l-.39,1.71h-13.81l.79-3.94c.26-1.45.39-2.76.39-3.94,0-4.47-2.37-5.92-6.57-5.92-6.44,0-8.55,6.05-8.55,11.97,0,5.26,2.37,10.52,8.02,17.09,7.23,8.55,10.91,16.44,10.91,25.25,0,15.65-8.81,27.22-24.46,27.22-13.41,0-19.85-5.79-19.85-17.09Z"/>
    <path class="cls-2" d="m767.72,159.48h14.46l-3.02,14.46h-14.46l3.02-14.46Z"/>
    <path class="cls-2" d="m810.06,81.9h14.73l-19.59,92.04h-14.73l19.59-92.04Z"/>
    <path class="cls-2" d="m818.74,156.72c0-2.1.26-4.34.79-6.71l10.39-48.65c2.89-13.54,11.04-20.77,23.14-20.77,12.75,0,21.3,6.31,21.3,18.54,0,2.1-.26,4.47-.79,6.84l-10.39,48.65c-2.89,13.54-10.91,20.64-23.14,20.64s-21.3-6.31-21.3-18.54Zm29.85-2.76l10.65-50.36c.26-1.18.39-2.37.39-3.29,0-4.47-2.63-6.57-7.23-6.57-3.81,0-6.57,2.1-7.89,8.28l-10.65,50.36c-.26,1.18-.39,2.24-.39,3.16,0,4.6,2.76,6.57,7.36,6.57,3.68,0,6.44-1.97,7.76-8.15Z"/>
  </g>
</svg>