<svg width="24" height="25" viewBox="0 0 24 25" fill="none" xmlns="http://www.w3.org/2000/svg">
<path d="M7.5 11.333H7.51M12 11.333H12.01M16.5 11.333H16.51M7 18.833L7 21.1685C7 21.7014 7 21.9678 7.10923 22.1046C7.20422 22.2236 7.34827 22.2929 7.50054 22.2927C7.67563 22.2925 7.88367 22.1261 8.29976 21.7932L10.6852 19.8848C11.1725 19.495 11.4162 19.3001 11.6875 19.1615C11.9282 19.0385 12.1844 18.9486 12.4492 18.8943C12.7477 18.833 13.0597 18.833 13.6837 18.833H16.2C17.8802 18.833 18.7202 18.833 19.362 18.506C19.9265 18.2184 20.3854 17.7595 20.673 17.195C21 16.5532 21 15.7132 21 14.033V8.63301C21 6.95285 21 6.11277 20.673 5.47104C20.3854 4.90655 19.9265 4.44761 19.362 4.15999C18.7202 3.83301 17.8802 3.83301 16.2 3.83301L7.8 3.83301C6.11984 3.83301 5.27976 3.83301 4.63803 4.15999C4.07354 4.44761 3.6146 4.90655 3.32698 5.47104C3 6.11277 3 6.95285 3 8.63301L3 14.833C3 15.763 3 16.228 3.10222 16.6095C3.37962 17.6447 4.18827 18.4534 5.22354 18.7308C5.60504 18.833 6.07003 18.833 7 18.833ZM8 11.333C8 11.6092 7.77614 11.833 7.5 11.833C7.22386 11.833 7 11.6092 7 11.333C7 11.0569 7.22386 10.833 7.5 10.833C7.77614 10.833 8 11.0569 8 11.333ZM12.5 11.333C12.5 11.6092 12.2761 11.833 12 11.833C11.7239 11.833 11.5 11.6092 11.5 11.333C11.5 11.0569 11.7239 10.833 12 10.833C12.2761 10.833 12.5 11.0569 12.5 11.333ZM17 11.333C17 11.6092 16.7761 11.833 16.5 11.833C16.2239 11.833 16 11.6092 16 11.333C16 11.0569 16.2239 10.833 16.5 10.833C16.7761 10.833 17 11.0569 17 11.333Z" stroke="#FF59E9" stroke-width="2" stroke-linecap="round" stroke-linejoin="round"/>
</svg>
