<?xml version="1.0" encoding="UTF-8"?>
<!DOCTYPE svg PUBLIC "-//W3C//DTD SVG 1.1//EN" "http://www.w3.org/Graphics/SVG/1.1/DTD/svg11.dtd">
<svg xmlns="http://www.w3.org/2000/svg" version="1.1" width="1377px" height="1222px" style="shape-rendering:geometricPrecision; text-rendering:geometricPrecision; image-rendering:optimizeQuality; fill-rule:evenodd; clip-rule:evenodd" xmlns:xlink="http://www.w3.org/1999/xlink">
<g><path style="opacity:1" fill="#fffefe" d="M -0.5,-0.5 C 458.5,-0.5 917.5,-0.5 1376.5,-0.5C 1376.5,406.833 1376.5,814.167 1376.5,1221.5C 917.5,1221.5 458.5,1221.5 -0.5,1221.5C -0.5,814.167 -0.5,406.833 -0.5,-0.5 Z"/></g>
<g><path style="opacity:1" fill="#f83c31" d="M 699.5,119.5 C 859.738,115.695 991.571,174.362 1095,295.5C 1192.07,420.132 1223.07,559.798 1188,714.5C 1151.7,847.75 1073.87,948.584 954.5,1017C 835.668,1079.55 711.668,1092.22 582.5,1055C 428.096,1002.93 323.596,900.096 269,746.5C 234.184,635.036 238.184,525.036 281,416.5C 335.62,290.214 426.786,201.381 554.5,150C 601.41,132.586 649.743,122.419 699.5,119.5 Z"/></g>
<g><path style="opacity:1" fill="#fffefe" d="M 722.5,363.5 C 736.626,362.02 749.96,364.52 762.5,371C 773.45,379.396 779.283,390.563 780,404.5C 780.967,447.199 780.634,489.866 779,532.5C 774.883,552.995 762.383,564.495 741.5,567C 724.572,569.889 709.739,565.722 697,554.5C 691.151,546.797 687.484,538.13 686,528.5C 685.043,484.474 685.377,440.474 687,396.5C 691.999,378.094 703.832,367.094 722.5,363.5 Z"/></g>
<g><path style="opacity:1" fill="#fffdfd" d="M 636.5,480.5 C 636.461,481.756 636.961,482.756 638,483.5C 638.5,444.501 638.667,405.501 638.5,366.5C 647.5,366.5 656.5,366.5 665.5,366.5C 665.5,432.5 665.5,498.5 665.5,564.5C 654.833,564.5 644.167,564.5 633.5,564.5C 621.162,516.816 608.662,469.149 596,421.5C 595.5,469.166 595.333,516.832 595.5,564.5C 586.167,564.5 576.833,564.5 567.5,564.5C 567.5,498.5 567.5,432.5 567.5,366.5C 580.746,366.177 593.913,366.511 607,367.5C 616.987,405.115 626.82,442.781 636.5,480.5 Z"/></g>
<g><path style="opacity:1" fill="#fececc" d="M 638.5,366.5 C 638.667,405.501 638.5,444.501 638,483.5C 636.961,482.756 636.461,481.756 636.5,480.5C 637.167,442.5 637.833,404.5 638.5,366.5 Z"/></g>
<g><path style="opacity:1" fill="#fffefe" d="M 887.5,366.5 C 887.5,375.833 887.5,385.167 887.5,394.5C 876.654,394.172 865.987,394.506 855.5,395.5C 855.5,451.833 855.5,508.167 855.5,564.5C 845.167,564.5 834.833,564.5 824.5,564.5C 824.5,507.833 824.5,451.167 824.5,394.5C 813.5,394.5 802.5,394.5 791.5,394.5C 791.5,385.167 791.5,375.833 791.5,366.5C 823.5,366.5 855.5,366.5 887.5,366.5 Z"/></g>
<g><path style="opacity:1" fill="#f83d31" d="M 729.5,391.5 C 739.515,390.746 746.015,395.08 749,404.5C 749.667,445.167 749.667,485.833 749,526.5C 746.978,534.851 741.645,539.185 733,539.5C 724.407,539.201 719.074,534.868 717,526.5C 716.333,485.833 716.333,445.167 717,404.5C 718.718,397.618 722.885,393.285 729.5,391.5 Z"/></g>
<g><path style="opacity:1" fill="#fc7d74" d="M 887.5,366.5 C 888.494,375.986 888.827,385.652 888.5,395.5C 877.5,395.5 866.5,395.5 855.5,395.5C 865.987,394.506 876.654,394.172 887.5,394.5C 887.5,385.167 887.5,375.833 887.5,366.5 Z"/></g>
<g><path style="opacity:1" fill="#fffdfc" d="M 354.5,616.5 C 365.167,616.5 375.833,616.5 386.5,616.5C 392.672,666.533 399.172,716.533 406,766.5C 413.374,716.654 420.207,666.654 426.5,616.5C 436.167,616.5 445.833,616.5 455.5,616.5C 445.528,682.134 435.695,747.801 426,813.5C 419.077,814.158 412.077,814.491 405,814.5C 397.923,814.491 390.923,814.158 384,813.5C 374.247,747.809 364.414,682.143 354.5,616.5 Z"/></g>
<g><path style="opacity:1" fill="#fffefe" d="M 471.5,616.5 C 499.833,616.5 528.167,616.5 556.5,616.5C 556.5,625.833 556.5,635.167 556.5,644.5C 538.5,644.5 520.5,644.5 502.5,644.5C 502.5,662.167 502.5,679.833 502.5,697.5C 516.833,697.5 531.167,697.5 545.5,697.5C 545.5,706.833 545.5,716.167 545.5,725.5C 531.167,725.5 516.833,725.5 502.5,725.5C 502.5,745.833 502.5,766.167 502.5,786.5C 520.5,786.5 538.5,786.5 556.5,786.5C 556.5,795.833 556.5,805.167 556.5,814.5C 528.167,814.5 499.833,814.5 471.5,814.5C 471.5,748.5 471.5,682.5 471.5,616.5 Z"/></g>
<g><path style="opacity:1" fill="#fffefe" d="M 572.5,616.5 C 593.536,616.084 614.536,616.584 635.5,618C 653.005,622.842 662.505,634.342 664,652.5C 664.87,664.876 664.536,677.209 663,689.5C 660.773,700.557 654.607,708.557 644.5,713.5C 654.902,717.738 661.069,725.405 663,736.5C 664.264,757.797 664.931,779.13 665,800.5C 665.347,805.294 666.18,809.96 667.5,814.5C 656.918,814.82 646.418,814.487 636,813.5C 634.956,811.285 634.29,808.952 634,806.5C 633.945,784.458 633.278,762.458 632,740.5C 630.6,737.098 628.433,734.264 625.5,732C 618.293,730.066 610.96,729.233 603.5,729.5C 603.5,757.833 603.5,786.167 603.5,814.5C 593.167,814.5 582.833,814.5 572.5,814.5C 572.5,748.5 572.5,682.5 572.5,616.5 Z"/></g>
<g><path style="opacity:1" fill="#fefefe" d="M 686.5,616.5 C 696.833,616.5 707.167,616.5 717.5,616.5C 717.5,682.5 717.5,748.5 717.5,814.5C 707.167,814.5 696.833,814.5 686.5,814.5C 686.5,748.5 686.5,682.5 686.5,616.5 Z"/></g>
<g><path style="opacity:1" fill="#fefefe" d="M 740.5,616.5 C 767.833,616.5 795.167,616.5 822.5,616.5C 822.5,625.833 822.5,635.167 822.5,644.5C 805.5,644.5 788.5,644.5 771.5,644.5C 771.5,663.167 771.5,681.833 771.5,700.5C 784.833,700.5 798.167,700.5 811.5,700.5C 811.5,709.833 811.5,719.167 811.5,728.5C 798.167,728.5 784.833,728.5 771.5,728.5C 771.5,757.167 771.5,785.833 771.5,814.5C 761.167,814.5 750.833,814.5 740.5,814.5C 740.5,748.5 740.5,682.5 740.5,616.5 Z"/></g>
<g><path style="opacity:1" fill="#fefefe" d="M 837.5,616.5 C 847.833,616.5 858.167,616.5 868.5,616.5C 868.5,682.5 868.5,748.5 868.5,814.5C 858.167,814.5 847.833,814.5 837.5,814.5C 837.5,748.5 837.5,682.5 837.5,616.5 Z"/></g>
<g><path style="opacity:1" fill="#fffefe" d="M 892.5,616.5 C 920.833,616.5 949.167,616.5 977.5,616.5C 977.5,625.833 977.5,635.167 977.5,644.5C 959.5,644.5 941.5,644.5 923.5,644.5C 923.5,662.167 923.5,679.833 923.5,697.5C 937.833,697.5 952.167,697.5 966.5,697.5C 966.5,706.833 966.5,716.167 966.5,725.5C 952.167,725.5 937.833,725.5 923.5,725.5C 923.5,745.833 923.5,766.167 923.5,786.5C 941.5,786.5 959.5,786.5 977.5,786.5C 977.5,795.833 977.5,805.167 977.5,814.5C 949.167,814.5 920.833,814.5 892.5,814.5C 892.5,748.5 892.5,682.5 892.5,616.5 Z"/></g>
<g><path style="opacity:1" fill="#fffefe" d="M 993.5,616.5 C 1012.17,616.333 1030.84,616.5 1049.5,617C 1070.5,619.666 1082.67,631.499 1086,652.5C 1086.67,693.5 1086.67,734.5 1086,775.5C 1084.04,798.126 1071.87,810.959 1049.5,814C 1030.84,814.5 1012.17,814.667 993.5,814.5C 993.5,748.5 993.5,682.5 993.5,616.5 Z"/></g>
<g><path style="opacity:1" fill="#f83d32" d="M 603.5,644.5 C 625.846,640.184 635.512,649.184 632.5,671.5C 636.339,694.66 626.672,704.66 603.5,701.5C 603.5,682.5 603.5,663.5 603.5,644.5 Z"/></g>
<g><path style="opacity:1" fill="#f83d31" d="M 1024.5,644.5 C 1030.84,644.334 1037.18,644.5 1043.5,645C 1048.68,645.831 1052.18,648.664 1054,653.5C 1055.14,674.118 1055.64,694.785 1055.5,715.5C 1055.33,734.833 1055.17,754.167 1055,773.5C 1054.01,780.336 1050.18,784.502 1043.5,786C 1037.18,786.5 1030.84,786.666 1024.5,786.5C 1024.5,739.167 1024.5,691.833 1024.5,644.5 Z"/></g>
</svg>
