<svg width="86" height="86" viewBox="0 0 86 86" fill="none" xmlns="http://www.w3.org/2000/svg">
<circle cx="43" cy="43" r="43" fill="#F04438"/>
<path d="M32.5555 37H30.3995V21.6H33.3915L35.8335 30.818V21.6H37.9895V37H35.5475L32.5555 25.758V37ZM40.0522 33.348V25.252C40.0522 22.788 41.3502 21.38 43.7262 21.38C46.1022 21.38 47.4002 22.788 47.4002 25.252V33.348C47.4002 35.812 46.1022 37.22 43.7262 37.22C41.3502 37.22 40.0522 35.812 40.0522 33.348ZM44.9802 33.502V25.098C44.9802 24.086 44.5622 23.58 43.7262 23.58C42.8902 23.58 42.4722 24.086 42.4722 25.098V33.502C42.4722 34.514 42.8902 35.02 43.7262 35.02C44.5622 35.02 44.9802 34.514 44.9802 33.502ZM53.7028 37H51.2828V23.8H48.7528V21.6H56.2328V23.8H53.7028V37ZM18.2426 63H15.0306L12.6986 47.6H15.1406L16.7466 59.7L18.3526 47.6H20.5746L18.2426 63ZM28.777 63H22.177V47.6H28.777V49.8H24.597V53.87H27.919V56.07H24.597V60.8H28.777V63ZM32.9432 63H30.5232V47.6H34.1092C36.5952 47.6 37.6952 48.744 37.6952 51.142V52.088C37.6952 53.694 37.1672 54.706 36.1112 55.124V55.168C37.1892 55.498 37.7172 56.598 37.7172 58.424V61.13C37.7172 61.966 37.8052 62.582 37.9812 63H35.5172C35.3632 62.56 35.2972 61.922 35.2972 61.108V58.292C35.2972 56.884 34.9012 56.4 33.7792 56.4H32.9432V63ZM32.9432 49.8V54.2H33.8232C34.7912 54.2 35.2752 53.738 35.2752 52.572V51.384C35.2752 50.328 34.8572 49.8 34.0432 49.8H32.9432ZM42.2563 63H39.8363V47.6H42.2563V63ZM46.9287 63H44.5087V47.6H50.9107V49.8H46.9287V54.09H50.0527V56.29H46.9287V63ZM54.9312 63H52.5112V47.6H54.9312V63ZM63.7836 63H57.1836V47.6H63.7836V49.8H59.6036V53.87H62.9256V56.07H59.6036V60.8H63.7836V63ZM69.2259 63H65.5299V47.6H69.2259C71.6239 47.6 72.8339 48.876 72.8339 51.406V59.194C72.8339 61.724 71.6239 63 69.2259 63ZM67.9499 49.8V60.8H69.1819C69.9959 60.8 70.4139 60.294 70.4139 59.304V51.296C70.4139 50.306 69.9959 49.8 69.1819 49.8H67.9499Z" fill="white"/>
</svg>
