<svg width="52" height="52" viewBox="0 0 52 52" fill="none" xmlns="http://www.w3.org/2000/svg">
<g filter="url(#filter0_d_4818_4900)">
<rect x="2" y="1" width="48" height="48" rx="10" fill="white"/>
<path d="M28 15.2695V19.4001C28 19.9601 28 20.2401 28.109 20.4541C28.2049 20.6422 28.3578 20.7952 28.546 20.8911C28.7599 21.0001 29.0399 21.0001 29.6 21.0001H33.7305M30 26H22M30 30H22M24 22H22M28 15H22.8C21.1198 15 20.2798 15 19.638 15.327C19.0735 15.6146 18.6146 16.0735 18.327 16.638C18 17.2798 18 18.1198 18 19.8V30.2C18 31.8802 18 32.7202 18.327 33.362C18.6146 33.9265 19.0735 34.3854 19.638 34.673C20.2798 35 21.1198 35 22.8 35H29.2C30.8802 35 31.7202 35 32.362 34.673C32.9265 34.3854 33.3854 33.9265 33.673 33.362C34 32.7202 34 31.8802 34 30.2V21L28 15Z" stroke="#344054" stroke-width="2" stroke-linecap="round" stroke-linejoin="round"/>
<rect x="2.5" y="1.5" width="47" height="47" rx="9.5" stroke="#EAECF0"/>
</g>
<defs>
<filter id="filter0_d_4818_4900" x="0" y="0" width="52" height="52" filterUnits="userSpaceOnUse" color-interpolation-filters="sRGB">
<feFlood flood-opacity="0" result="BackgroundImageFix"/>
<feColorMatrix in="SourceAlpha" type="matrix" values="0 0 0 0 0 0 0 0 0 0 0 0 0 0 0 0 0 0 127 0" result="hardAlpha"/>
<feOffset dy="1"/>
<feGaussianBlur stdDeviation="1"/>
<feColorMatrix type="matrix" values="0 0 0 0 0.0627451 0 0 0 0 0.0941176 0 0 0 0 0.156863 0 0 0 0.05 0"/>
<feBlend mode="normal" in2="BackgroundImageFix" result="effect1_dropShadow_4818_4900"/>
<feBlend mode="normal" in="SourceGraphic" in2="effect1_dropShadow_4818_4900" result="shape"/>
</filter>
</defs>
</svg>
