<svg width="100" height="100" viewBox="0 0 100 100" fill="none" xmlns="http://www.w3.org/2000/svg">
<path d="M17.7209 88.3212C21.1272 84.5033 24.9344 83.4264 29.1558 82.8379C27.0971 81.0918 24.9623 80.1442 22.6046 79.8453C20.4301 79.5693 18.2285 79.4897 16.0817 79.0468C13.1165 78.435 11.1902 76.2017 9.74632 73.0382C13.1806 72.1093 16.2234 73.1329 19.4231 74.0712C18.3268 72.6597 17.2646 71.2094 16.1065 69.8694C15.8688 69.5945 15.2711 69.6799 14.842 69.6935C14.4028 69.7071 13.9379 69.9897 13.5328 69.8911C9.45582 68.8961 6.55515 66.1112 4.26032 61.751C7.6748 61.5048 10.2535 63.093 13.1274 64.9346C12.1142 62.5759 11.3607 60.5072 10.3533 58.6186C9.9005 57.7692 9.02358 56.9695 8.19831 56.6784C3.72633 55.1019 1.74335 51.0829 0 46.0945C3.43816 46.6923 5.6561 48.8884 8.1117 51.4714C7.66703 48.7086 7.34741 46.3678 6.88138 44.0662C6.75516 43.4427 6.27592 42.8002 5.80794 42.4012C2.00938 39.1613 0.975952 34.5786 0.776723 29.1088C3.93488 30.9198 5.32366 34.0017 6.88215 37.2517C7.12527 35.2808 7.40605 33.5883 7.50819 31.881C7.54664 31.2455 7.26275 30.511 6.96371 29.9334C5.35046 26.8146 5.36094 23.5941 6.22815 20.2932C6.4169 20.2133 6.60603 20.1337 6.79477 20.0537C7.52411 21.9015 8.25384 23.7494 9.03367 25.7241C9.94865 23.3616 11.6431 21.3464 10.7079 18.1546C10.0854 16.0304 10.7417 13.8301 12.2617 11.8825C12.4951 13.3899 12.7285 14.8973 12.9946 16.615C14.1449 15.1647 15.27 13.8662 15.4071 11.7548C15.5407 9.69656 16.3147 7.96208 17.9955 6.54128V9.65502C18.86 8.77303 19.5754 8.04283 20.2907 7.31263L20.4371 7.45471C19.0728 9.36542 17.7089 11.2761 16.1092 13.5168C17.4491 13.3165 18.4309 13.1702 19.728 12.9765C18.8503 14.94 17.5671 15.7245 16.1896 16.0529C13.8229 16.6174 12.7538 18.4543 12.0415 20.8996C13.6913 20.3581 15.2906 19.8332 17.2906 19.1764C16.2859 21.7459 14.8696 23.1721 13.1868 23.7257C9.86671 24.8181 8.89852 27.4978 8.79483 30.959C10.4959 29.6896 12.2509 28.3802 14.0055 27.0712C14.1379 27.247 14.2699 27.4233 14.4024 27.5991C13.8894 30.2125 12.8583 32.7303 10.7495 33.8856C8.15442 35.3076 7.65887 37.4974 7.83286 40.3359C7.88801 41.2346 7.9218 42.1349 7.96646 43.0533C9.01969 40.5937 10.0516 38.1842 11.0834 35.775C11.3137 35.8255 11.544 35.8755 11.7743 35.926C11.9755 37.1372 12.3942 38.3635 12.3324 39.5568C12.1969 42.1869 11.8454 44.8045 11.5184 47.4167C11.4497 47.9664 11.1417 48.4943 10.8834 48.9905C10.3859 49.9454 9.36417 50.914 9.42398 51.7995C9.54476 53.5848 10.2442 55.3185 10.9716 56.9711C11.372 54.7335 11.7728 52.4959 12.2427 49.8693C14.5103 52.1232 15.2614 54.5731 15.2354 57.395C15.2253 58.4924 15.1908 59.6162 14.9818 60.6799C14.3364 63.9703 14.91 66.8235 16.9632 69.2797C17.738 70.2071 18.4134 71.2451 19.2468 72.1861C18.3512 68.3573 17.2405 64.584 18.265 60.3472C21.3043 62.2017 23.132 64.8744 23.4698 68.8014C23.5145 69.3162 23.5506 69.8387 23.5262 70.3538C23.2228 76.704 26.2909 80.2622 31.2973 82.5782C29.0226 79.0996 26.9818 75.7708 26.7969 71.4614C30.477 71.5316 33.1742 74.0056 33.636 78.0095C34.0542 81.6349 35.5914 83.9381 38.6249 85.0192C39.0979 85.1881 39.4144 85.9404 39.8035 86.4229C39.668 86.6252 39.5325 86.8274 39.3969 87.0297C38.1829 86.617 36.9355 86.3018 35.7634 85.7657C34.3587 85.1233 33.2806 85.4676 32.0355 86.4361C27.7317 89.7832 23.0345 89.8209 17.7209 88.3212Z" fill="#3364F7"/>
<path d="M87.5494 64.3176C90.3025 63.2531 92.9655 62.2232 95.9163 61.0823C94.8739 66.2974 88.2283 70.9111 84.66 69.271C83.4425 70.8537 82.1846 72.4888 80.6397 74.4969C84.074 73.184 87.1327 72.1208 90.5969 73.0027C89.3254 76.1805 87.3677 78.3319 84.4596 79.0035C82.3252 79.4965 80.082 79.3708 77.9519 79.8797C75.6947 80.4193 73.5137 81.3832 71.3396 82.4899C75.3879 83.4437 79.2533 84.4403 82.4118 88.0664C79.8238 89.6017 77.2116 89.5695 74.7463 89.0385C72.4892 88.5521 70.2732 87.4686 68.2098 86.2601C67.0137 85.5594 66.0521 85.1472 64.7716 85.7186C63.5852 86.2485 62.3347 86.5889 61.1125 87.0125C60.9731 86.8296 60.8337 86.6464 60.6938 86.4635C61.0418 85.9698 61.311 85.1895 61.7506 85.0284C64.7581 83.9267 66.3573 81.7097 66.7321 78.0249C67.1333 74.0823 69.8499 71.6013 73.6647 71.4045C73.356 75.7283 71.4324 79.1266 69.1508 82.4309C74.1875 80.6359 76.685 77.0761 76.765 71.2729C76.8307 66.5101 78.1359 62.6964 82.1194 60.37C83.0949 64.4041 82.1508 68.113 80.9885 72.3393C84.1858 68.7772 86.4309 65.4612 85.4336 60.3859C84.7684 57.0008 85.0138 53.6623 87.1712 50.8789C87.283 50.7341 87.3886 50.5788 87.5172 50.4565C87.5953 50.382 87.7122 50.361 88.1852 50.1471C88.6194 52.5109 89.04 54.8009 89.532 57.4798C90.0862 55.4775 90.6311 53.7186 91.0315 51.9169C91.1348 51.4523 90.9247 50.6856 90.6186 50.3428C87.8391 47.2333 88.0046 43.2333 88.0663 39.2876C88.0838 38.1774 88.4143 37.0738 88.6015 35.9674C88.8097 35.8983 89.0178 35.8296 89.226 35.7609C90.2617 38.0443 91.2979 40.3276 92.2777 42.4864C93.4207 39.3699 92.4979 36.0532 89.9204 34.1945C87.817 32.6774 86.5785 30.4282 85.9478 27.3657C88.2788 27.8222 89.8388 29.4123 91.3752 31.1017C91.8567 27.8218 90.6921 25.3435 88.1634 24.2453C86.1272 23.3606 84.4142 22.0512 83.3322 19.8598C83.4029 19.6739 83.4736 19.4879 83.5439 19.302C85.1486 19.8431 86.7529 20.3847 88.3654 20.9289C87.6706 18.5334 86.5972 16.6805 84.1862 16.0116C82.9376 15.665 82.7695 15.5256 81.6079 14.762C81.3477 14.71 80.8552 13.295 80.9395 13.0458C81.9481 13.1976 82.9571 13.3494 84.2627 13.5462C82.9291 11.6265 81.7151 9.87963 80.5011 8.13234C80.5547 8.07994 80.6082 8.02714 80.6618 7.97435C81.1974 8.48949 81.7326 9.00463 82.425 9.67078C82.3532 8.60284 82.2961 7.75347 82.2044 6.39516C83.9295 7.76472 84.7824 9.31286 84.907 11.1754C85.0581 13.4243 86.081 14.9899 87.363 16.644C87.6221 14.9786 87.8601 13.4472 88.1821 11.3738C89.6404 13.5559 90.3522 15.7112 89.7674 17.5438C88.6823 20.9445 90.3371 23.2174 91.3822 25.7527C92.108 23.8459 92.8288 21.9522 93.5496 20.0582L94.0859 20.2504C95.0502 23.2418 95.1267 26.3494 93.7791 29.1529C92.9915 30.7915 92.8548 32.2368 93.1088 33.9274C93.2525 34.882 93.3139 35.8525 93.4704 37.3851C95.0203 33.9682 96.559 31.045 99.6391 28.9771C99.5405 30.5431 99.582 31.6855 99.3801 32.7675C98.6721 36.5602 97.5602 40.0823 94.5842 42.4406C93.971 42.9266 93.5298 43.9709 93.3434 44.8517C92.9077 46.9158 92.6739 49.0369 92.336 51.2842C93.5589 50.1751 94.6203 49.038 95.8262 48.1669C97.0398 47.29 98.3971 46.6778 99.6442 45.9763C99.8787 46.3319 100.007 46.4375 99.9995 46.528C99.697 50.1627 95.7664 55.6832 92.75 56.4561C91.2101 56.8506 90.2594 57.8005 89.6206 59.3544C88.9293 61.0346 88.2228 62.7061 87.5494 64.3176Z" fill="#3364F7"/>
<path d="M28.0637 43.9769H25.9053L23.311 29.4551H24.9506L27.0468 41.7779L29.1429 29.4551H30.6372L28.0637 43.9769Z" fill="#3364F7"/>
<path d="M37.9364 43.9769H31.9799V29.4551H37.9364V30.928H33.5988V35.658H37.1269V37.1309H33.5988V42.504H37.9364V43.9769Z" fill="#3364F7"/>
<path d="M40.9965 43.9769H39.3776V29.4551H42.553C44.8567 29.4551 45.8322 30.4924 45.8322 32.7536V33.6457C45.8322 35.2431 45.2718 36.2181 44.1511 36.5708V36.5915C45.2926 36.8819 45.8529 37.8985 45.8529 39.6203V42.2135C45.8529 43.0018 45.9152 43.5827 46.0605 43.9769H44.4209C44.2964 43.562 44.2341 42.9811 44.2341 42.2135V39.5374C44.2341 37.9815 43.6945 37.4213 42.304 37.4213H40.9965V43.9769ZM40.9965 30.928V35.9484H42.304C43.6115 35.9484 44.2133 35.3675 44.2133 33.9568V32.9196C44.2133 31.5089 43.736 30.928 42.5115 30.928H40.9965Z" fill="#3364F7"/>
<path d="M49.3265 43.9769H47.7077V29.4551H49.3265V43.9769Z" fill="#3364F7"/>
<path d="M52.9139 43.9769H51.295V29.4551H57.0647V30.928H52.9139V35.8654H56.2553V37.3383H52.9139V43.9769Z" fill="#3364F7"/>
<path d="M60.0075 43.9769H58.3887V29.4551H60.0075V43.9769Z" fill="#3364F7"/>
<path d="M67.9325 43.9769H61.9761V29.4551H67.9325V30.928H63.5949V35.658H67.1231V37.1309H63.5949V42.504H67.9325V43.9769Z" fill="#3364F7"/>
<path d="M72.6945 43.9769H69.3738V29.4551H72.6945C74.8736 29.4551 75.9736 30.6376 75.9736 32.9818V40.4502C75.9736 42.7944 74.8736 43.9769 72.6945 43.9769ZM70.9926 30.928V42.504H72.653C73.8152 42.504 74.3548 41.9231 74.3548 40.5124V32.8988C74.3548 31.4881 73.8152 30.928 72.653 30.928H70.9926Z" fill="#3364F7"/>
<path d="M35.2864 63.249H33.6468L33.1072 60.158H29.745L29.2054 63.249H27.6904L30.3884 48.7272H32.5676L35.2864 63.249ZM31.4053 50.5736L29.9941 58.7473H32.8581L31.4053 50.5736Z" fill="#3364F7"/>
<path d="M39.6958 63.4565C37.5581 63.4565 36.4166 62.191 36.4166 59.8675V52.088C36.4166 49.7852 37.5581 48.5198 39.6958 48.5198C41.8542 48.5198 42.9957 49.7645 42.9957 52.088V53.2705H41.4599V51.9843C41.4599 50.6566 40.8788 49.9927 39.7373 49.9927C38.5958 49.9927 38.0355 50.6566 38.0355 51.9843V59.992C38.0355 61.3197 38.5958 61.9836 39.7373 61.9836C40.8788 61.9836 41.4599 61.3197 41.4599 59.992V56.735H39.8618V55.262H42.9957V59.8675C42.9957 62.191 41.8542 63.4565 39.6958 63.4565Z" fill="#3364F7"/>
<path d="M50.6867 63.249H44.7303V48.7272H50.6867V50.2002H46.3491V54.9301H49.8773V56.403H46.3491V61.7761H50.6867V63.249Z" fill="#3364F7"/>
<path d="M53.6015 63.249H52.128V48.7272H54.2034L57.4826 59.0999V48.7272H58.9561V63.249H57.275L53.6015 51.4449V63.249Z" fill="#3364F7"/>
<path d="M64.016 63.4565C61.9614 63.4565 60.7784 62.1703 60.7784 59.992V51.9843C60.7784 49.806 61.9406 48.5198 64.016 48.5198C66.0915 48.5198 67.2537 49.806 67.2537 51.9843V53.4779H65.7179V51.8805C65.7179 50.6566 65.0745 49.9927 64.0576 49.9927C63.0406 49.9927 62.3972 50.6566 62.3972 51.8805V60.0957C62.3972 61.3197 63.0406 61.9836 64.0576 61.9836C65.0745 61.9836 65.7179 61.3197 65.7179 60.0957V58.0627H67.2537V59.992C67.2537 62.1703 66.0915 63.4565 64.016 63.4565Z" fill="#3364F7"/>
<path d="M72.547 63.249H70.9281V56.8802L68.0018 48.7272H69.7244L71.7998 54.7849L73.8752 48.7272H75.4733L72.547 56.8802V63.249Z" fill="#3364F7"/>
<path d="M70.7012 17.6144C70.7777 17.2546 70.9385 17.1323 71.1603 17.1323C71.4282 17.1323 71.5813 17.2546 71.5813 17.5147C71.5813 17.5682 71.5735 17.6373 71.5583 17.706L70.9385 20.6362C70.862 20.996 70.7012 21.1106 70.4869 21.1106C70.2189 21.1106 70.0581 20.996 70.0581 20.7282C70.0581 20.6746 70.0659 20.6133 70.081 20.5446L70.7012 17.6144Z" fill="#3364F7"/>
<path d="M48.0679 17.2088C48.29 17.2088 48.3895 17.2853 48.3895 17.484C48.3895 17.5531 48.3817 17.6296 48.3588 17.729L48.2671 18.142C48.1599 18.6087 47.9226 18.7387 47.6089 18.7387H47.356L47.6854 17.2088H48.0679Z" fill="#3364F7"/>
<path d="M30.0423 17.4148L29.8508 20.0239H29.116L30.0423 17.4148Z" fill="#3364F7"/>
<path fill-rule="evenodd" clip-rule="evenodd" d="M74.2851 14.5234H28.7489C27.7167 14.5234 26.6553 15.5254 26.3784 16.7618L25.3345 21.426C25.0579 22.6624 25.6704 23.6644 26.703 23.6644H72.2392C73.2719 23.6644 74.3332 22.6624 74.6101 21.426L75.6541 16.7618C75.9306 15.5254 75.3177 14.5234 74.2851 14.5234ZM72.3926 17.8437L71.7879 20.6745C71.6198 21.4625 71.1526 21.8755 70.4407 21.8755C69.6985 21.8755 69.201 21.5083 69.201 20.7967C69.201 20.6745 69.2162 20.5444 69.2469 20.4066L69.8516 17.5758C70.0201 16.7878 70.4943 16.367 71.1988 16.367C71.9409 16.367 72.4384 16.7342 72.4384 17.4458C72.4384 17.5681 72.4233 17.7059 72.3926 17.8437ZM67.5552 21.7991L68.6958 16.4435H69.5529L68.4127 21.7991H67.5552ZM66.8969 21.7991H66.0553L66.2312 20.9574H67.0732L66.8969 21.7991ZM64.4172 21.8755C63.6366 21.8755 63.2615 21.539 63.2615 20.881C63.2615 20.7358 63.2766 20.5828 63.315 20.4066L63.3531 20.223H64.157L64.0956 20.5522C64.0805 20.6286 64.0727 20.6974 64.0727 20.7587C64.0727 21.0339 64.2257 21.1104 64.4708 21.1104C64.8763 21.1104 64.9912 20.7358 64.9912 20.3608C64.9912 20.0316 64.8533 19.7257 64.5244 19.3433C64.0957 18.8612 63.889 18.3868 63.889 17.905C63.889 17.025 64.4094 16.367 65.2899 16.367C66.0476 16.367 66.4379 16.7113 66.4379 17.3542C66.4379 17.4994 66.4149 17.6601 66.3765 17.8359L66.3536 17.9353H65.5501L65.5959 17.7059C65.611 17.6217 65.6188 17.5452 65.6188 17.4765C65.6188 17.2164 65.4809 17.1321 65.2363 17.1321C64.8611 17.1321 64.7388 17.4842 64.7388 17.8282C64.7388 18.1345 64.8763 18.4404 65.2056 18.8231C65.6266 19.3204 65.8409 19.7793 65.8409 20.2921C65.8409 21.2024 65.3279 21.8755 64.4172 21.8755ZM61.1565 21.7991L61.5546 18.1193L60.3755 21.7991H59.2582L59.8629 16.4435H60.6742L60.1538 20.6364L61.4474 16.4435H62.3659L61.8684 20.6364L63.1387 16.4435H63.8964L62.2202 21.7991H61.1565ZM58.6458 19.3891H57.5133L57.1611 21.0339H58.5922L58.4314 21.7991H56.1354L57.276 16.4435H59.572L59.4035 17.2086H57.9724L57.6737 18.624H58.8065L58.6458 19.3891ZM54.6507 21.7991L55.7909 16.4435H56.6484L55.5078 21.7991H54.6507ZM52.3007 21.7991L52.6452 16.4435H53.4872L53.1349 20.6515L54.5742 16.4435H55.3855L53.4487 21.7991H52.3007ZM51.6195 18.624L51.4588 19.3891H50.3259L49.9737 21.0339H51.4052L51.2444 21.7991H48.9484L50.0886 16.4435H52.385L52.2164 17.2086H50.7853L50.4867 18.624H51.6195ZM48.7492 19.7948C48.7492 19.9322 48.7336 20.0778 48.6956 20.2385L48.4967 21.1795C48.4903 21.2113 48.484 21.2422 48.4777 21.2723C48.4466 21.4233 48.4198 21.5528 48.4198 21.6613C48.4198 21.7074 48.4276 21.7532 48.4354 21.799L47.6012 21.7991L47.5991 21.7808C47.5921 21.7193 47.5856 21.6629 47.5856 21.6003C47.5856 21.5005 47.6012 21.3631 47.6548 21.1104L47.8614 20.1314C47.892 20.0013 47.9072 19.8942 47.9072 19.8099C47.9072 19.5727 47.7849 19.504 47.5013 19.504H47.1953L46.7056 21.7991H45.8481L46.9887 16.4435H48.221C48.8715 16.4435 49.2544 16.7498 49.2544 17.3616C49.2544 17.4916 49.2389 17.6217 49.2082 17.775L49.1546 18.0351C49.0245 18.6624 48.8028 19.0067 48.3589 19.1213V19.129C48.6268 19.221 48.7492 19.4578 48.7492 19.7948ZM44.4399 21.7991H43.5828L44.0725 19.5192L43.7125 16.4435H44.57L44.7152 18.4404L45.7331 16.4435H46.6058L44.9296 19.5192L44.4399 21.7991ZM43.2608 17.8053L43.1692 18.249H42.3579L42.4802 17.6679C42.4954 17.6065 42.5031 17.5452 42.5031 17.4916C42.5031 17.247 42.3424 17.1321 42.0973 17.1321C41.8755 17.1321 41.7148 17.2699 41.646 17.5836L41.0029 20.5751C40.9878 20.6364 40.98 20.6974 40.98 20.7432C40.98 21.0036 41.1485 21.1104 41.3858 21.1104C41.6076 21.1104 41.7913 20.9804 41.8526 20.6745L42.0208 19.8406H42.8247L42.6488 20.6974C42.488 21.4703 42.0363 21.8755 41.3396 21.8755C40.5361 21.8755 40.1306 21.4854 40.1306 20.8352C40.1306 20.7129 40.1458 20.5828 40.1765 20.4373L40.7963 17.5452C40.9571 16.7956 41.4165 16.367 42.1128 16.367C42.909 16.367 43.3067 16.7571 43.3067 17.4C43.3067 17.5223 43.2915 17.6679 43.2608 17.8053ZM38.5154 21.7991L38.3011 17.8895L37.4669 21.7991H36.7014L37.8416 16.4435H38.8599L39.0281 19.6492L39.717 16.4435H40.4825L39.3419 21.7991H38.5154ZM36.4641 19.3891H35.3313L34.979 21.0339H36.4105L36.2497 21.7991H33.9534L35.094 16.4435H37.39L37.2218 17.2086H35.7903L35.4921 18.624H36.6249L36.4641 19.3891ZM32.3459 21.8755C31.6189 21.8755 31.1137 21.5467 31.1137 20.8274C31.1137 20.69 31.1292 20.5522 31.1595 20.3988L31.7642 17.5681C31.9405 16.7571 32.3844 16.367 33.0885 16.367C33.9075 16.367 34.3056 16.7498 34.3056 17.4151C34.3056 17.5378 34.2901 17.683 34.2594 17.8282L34.1907 18.1725H33.3794L33.4788 17.6908C33.4939 17.6217 33.5017 17.5529 33.5017 17.4994C33.5017 17.2315 33.3487 17.1244 33.0962 17.1244C32.859 17.1244 32.6982 17.2544 32.6217 17.5988L31.9863 20.5522C31.9712 20.6209 31.9634 20.69 31.9634 20.7432C31.9634 21.0036 32.1316 21.1104 32.3688 21.1104C32.6061 21.1104 32.7747 20.9881 32.8512 20.6438L33.0885 19.5421H32.6597L32.8205 18.7769H34.0605L33.6547 20.6667C33.4865 21.4625 33.0427 21.8755 32.3459 21.8755ZM30.5855 21.7991H29.7284L29.8049 20.7509H28.8557L28.4883 21.7991H27.6771L29.6899 16.4435H30.8535L30.5855 21.7991Z" fill="#3364F7"/>
<path d="M50.2725 69.8346L52.8291 77.6991C52.9153 77.965 53.1631 78.1447 53.4427 78.1447H61.7156C62.3404 78.1447 62.6002 78.9444 62.0946 79.3117L55.402 84.1723C55.1755 84.3365 55.0812 84.6277 55.1674 84.8936L57.724 92.7581C57.917 93.3524 57.2366 93.8466 56.7309 93.4794L50.0379 88.6187C49.8119 88.4545 49.5055 88.4545 49.2794 88.6187L42.5868 93.4794C42.0808 93.8466 41.4004 93.3524 41.5938 92.7581L44.15 84.8936C44.2366 84.6277 44.1418 84.3365 43.9158 84.1723L37.2228 79.3117C36.7171 78.9444 36.9769 78.1447 37.6022 78.1447H45.8751C46.1543 78.1447 46.4021 77.965 46.4887 77.6991L49.0449 69.8346C49.2383 69.2402 50.0795 69.2402 50.2725 69.8346Z" fill="#FF59E9"/>
</svg>
