<svg width="32" height="32" viewBox="0 0 32 32" fill="none" xmlns="http://www.w3.org/2000/svg">
<path d="M19.6117 28H3.53619C0.726607 28 -0.703195 25.7022 0.342317 22.8677L5.40885 9.13231C6.45436 6.29785 9.5787 4 12.3883 4H28.4638C31.2734 4 32.7032 6.29785 31.6577 9.13231L26.5912 22.8677C25.5456 25.7022 22.4213 28 19.6117 28Z" fill="#3364F7"/>
<path d="M6.45679 23.1083L11.7617 8.87646H14.8276L14.1216 23.1083H11.8625L12.0642 20.3229H9.56306L8.59487 23.1083H6.45679ZM12.6895 11.4585L10.2489 18.3915H12.1852L12.6895 11.4585Z" fill="white"/>
<path d="M17.4365 23.1083H15.1774L18.1828 8.87646H21.4303C23.1852 8.87646 24.1534 9.71004 24.1534 11.3162C24.1534 11.6415 24.113 12.0075 24.0323 12.4141L23.8911 13.1054C23.5482 14.8132 22.9431 15.6874 21.7934 15.9924V16.0127C22.4792 16.2364 22.8221 16.826 22.8221 17.7815C22.8221 18.1678 22.7817 18.5745 22.6809 18.9607L22.1565 21.4615C22.0153 22.1324 21.9548 22.5594 21.9548 22.7424C21.9548 22.8237 21.9749 22.9457 21.9951 23.1083H19.7965C19.7763 22.8643 19.7562 22.6814 19.7562 22.5797C19.7562 22.2747 19.8167 21.8478 19.9377 21.2785L20.4823 18.6761C20.563 18.3305 20.6033 18.0458 20.6033 17.8222C20.6033 17.1919 20.3209 17.0089 19.5343 17.0089H18.7275L17.4365 23.1083ZM20.0184 10.9096L19.151 14.9758H19.8167C20.7243 14.9758 21.3093 14.4472 21.5513 13.39L21.7934 12.2921C21.8539 12.0685 21.8741 11.8448 21.8741 11.6415C21.8741 11.1536 21.5917 10.9096 21.0269 10.9096H20.0184Z" fill="white"/>
</svg>
