<svg width="243" height="273" viewBox="0 0 243 273" fill="none" xmlns="http://www.w3.org/2000/svg">
<rect width="243" height="273" fill="#F2F4F7"/>
<path d="M119.61 24.018L38.2957 127.901C36.7543 129.87 38.1573 132.75 40.658 132.75H229.342C231.843 132.75 233.246 129.87 231.704 127.901L184.511 67.6084C183.309 66.074 180.987 66.074 179.786 67.6084L171.483 78.216C170.282 79.7505 167.959 79.7505 166.758 78.216L124.335 24.018C123.133 22.4835 120.811 22.4835 119.61 24.018Z" fill="white"/>
<circle cx="205.5" cy="41.25" r="16.5" fill="white"/>
<rect x="51" y="153.75" width="141" height="9" rx="3" fill="white"/>
<rect x="15" y="174.75" width="213" height="9" rx="3" fill="white"/>
<rect x="12" y="195.75" width="219" height="65.25" rx="3" fill="white"/>
</svg>
